<svg width="67" height="67" viewBox="0 0 67 67" fill="none" xmlns="http://www.w3.org/2000/svg">
<path fill-rule="evenodd" clip-rule="evenodd" d="M6.57732 27.4482C3.26362 27.4482 0.577324 30.1345 0.577324 33.4482C0.577324 36.7619 3.26362 39.4482 6.57732 39.4482L27.4479 39.4482L27.4479 60.3188C27.4479 63.6326 30.1342 66.3188 33.4479 66.3188C36.7616 66.3188 39.4479 63.6326 39.4479 60.3188L39.4479 39.4482H60.3185C63.6322 39.4482 66.3185 36.762 66.3185 33.4482C66.3185 30.1345 63.6322 27.4482 60.3185 27.4482L39.4479 27.4482L39.4479 6.57764C39.4479 3.26393 36.7616 0.577637 33.4479 0.577632C30.1342 0.577632 27.4479 3.26393 27.4479 6.57763L27.4479 27.4482L6.57732 27.4482Z" fill="white"/>
</svg>
