<svg width="25" height="25" viewBox="0 0 25 25" fill="none" xmlns="http://www.w3.org/2000/svg">
<rect width="25" height="25" rx="12.5" fill="white"/>
<path d="M12.6836 10.8636V14.3491H17.6262C17.4091 15.47 16.7578 16.4191 15.781 17.0573L18.7616 19.3237C20.4981 17.7528 21.5 15.4455 21.5 12.7046C21.5 12.0664 21.4416 11.4527 21.333 10.8637L12.6836 10.8636Z" fill="#4285F4"/>
<path d="M7.53678 14.213L6.86456 14.7173L4.48509 16.5336C5.99623 19.4709 9.09344 21.5 12.6834 21.5C15.163 21.5 17.2418 20.6982 18.7614 19.3237L15.7808 17.0573C14.9626 17.5973 13.919 17.9246 12.6834 17.9246C10.2957 17.9246 8.26695 16.3455 7.54054 14.2182L7.53678 14.213Z" fill="#34A853"/>
<path d="M4.4851 8.46637C3.85896 9.67722 3.5 11.0436 3.5 12.4999C3.5 13.9563 3.85896 15.3228 4.48509 16.5336C4.48509 16.5418 7.54084 14.2099 7.54084 14.2099C7.35717 13.6699 7.2486 13.0972 7.2486 12.4999C7.2486 11.9025 7.35717 11.3298 7.54084 10.7898L4.4851 8.46637Z" fill="#FBBC05"/>
<path d="M12.6836 7.08363C14.0362 7.08363 15.2384 7.5418 16.1985 8.42545L18.8284 5.84821C17.2337 4.39187 15.1633 3.5 12.6836 3.5C9.09363 3.5 5.99624 5.5209 4.4851 8.46637L7.54074 10.79C8.26705 8.66271 10.2959 7.08363 12.6836 7.08363Z" fill="#EA4335"/>
</svg>
