<svg width="274" height="275" viewBox="0 0 274 275" fill="none" xmlns="http://www.w3.org/2000/svg">
<g filter="url(#filter0_d_454_1917)">
<path d="M193.836 195.624C192.218 195.721 190.573 195.777 188.9 195.792C188.691 194.162 188.451 192.453 188.177 190.662C190.223 192.113 192.123 193.762 193.836 195.624Z" fill="white" shape-rendering="crispEdges"/>
<path d="M79.9987 207.938C85.5215 207.938 89.9987 203.461 89.9986 197.938C89.9986 192.416 85.5214 187.938 79.9986 187.938L79.9987 207.938ZM26.0012 141.111L36.001 141.177L26.0012 141.111ZM70.0898 110.885C70.8327 116.358 75.8715 120.192 81.3441 119.449C86.8168 118.706 90.651 113.668 89.908 108.195L70.0898 110.885ZM157.994 21.1434L155.284 30.7692L155.509 30.8325L155.737 30.8853L157.994 21.1434ZM247.99 145.282L237.991 145.154L237.991 145.154L247.99 145.282ZM168.064 78.9955C162.645 80.0614 159.116 85.3184 160.182 90.7374C161.248 96.1564 166.505 99.6854 171.924 98.6196L168.064 78.9955ZM93.8012 233.153C89.4674 236.576 88.7295 242.865 92.153 247.199C95.5765 251.533 101.865 252.27 106.199 248.847L93.8012 233.153ZM187.126 240.951C191.141 244.743 197.47 244.563 201.262 240.548C205.055 236.533 204.875 230.204 200.86 226.412L187.126 240.951ZM117.487 181.223C112.926 184.337 111.752 190.559 114.866 195.12C117.979 199.682 124.201 200.855 128.763 197.741L117.487 181.223ZM179.545 222.016C176.59 226.681 177.976 232.859 182.642 235.815C187.307 238.77 193.485 237.384 196.441 232.719L179.545 222.016ZM79.9986 187.938C52.3644 187.939 35.8469 164.378 36.001 141.177L16.0015 141.045C15.7936 172.339 38.4834 207.939 79.9987 207.938L79.9986 187.938ZM36.001 141.177C36.1653 116.449 54.8938 94.6751 79.3157 94.289L78.9996 74.2915C41.9238 74.8777 16.2255 107.323 16.0015 141.045L36.001 141.177ZM79.3156 94.2891C79.5424 94.2855 79.7701 94.2837 79.9986 94.2837V74.2837C79.6651 74.2837 79.3321 74.2863 78.9997 74.2915L79.3156 94.2891ZM89.908 108.195C88.7611 99.7465 88.5655 92.0514 89.1254 85.0923L69.1899 83.4883C68.5054 91.9949 68.766 101.134 70.0898 110.885L89.908 108.195ZM89.1254 85.0923C92.753 40.0071 128.246 23.1568 155.284 30.7692L160.704 11.5176C121.421 0.45755 73.8173 25.9764 69.1899 83.4883L89.1254 85.0923ZM155.737 30.8853C162.251 32.3947 172.17 38.2745 178.546 47.3737C184.518 55.8962 187.176 66.8217 180.907 79.9836L198.964 88.5837C208.752 68.0328 204.439 49.4735 194.926 35.8968C185.816 22.8967 171.737 14.0629 160.252 11.4015L155.737 30.8853ZM187.993 205.796C188.326 205.796 188.658 205.795 188.989 205.792L188.811 185.793C188.539 185.795 188.266 185.796 187.993 185.796V205.796ZM188.989 205.792C190.827 205.775 192.643 205.714 194.433 205.606L193.238 185.642C191.794 185.729 190.318 185.779 188.811 185.793L188.989 205.792ZM194.433 205.606C212.471 204.527 228.29 198.803 239.781 188.28C251.413 177.627 257.765 162.813 257.99 145.411L237.991 145.154C237.831 157.58 233.45 166.958 226.273 173.53C218.955 180.232 207.889 184.765 193.238 185.642L194.433 205.606ZM257.99 145.411C258.204 128.757 255.16 108.081 241.114 93.4206C226.53 78.1983 202.838 72.1561 168.064 78.9955L171.924 98.6196C203.146 92.4787 218.656 98.8891 226.673 107.257C235.228 116.187 238.183 130.238 237.991 145.154L257.99 145.411ZM106.199 248.847C108.8 246.792 114.102 244.009 121.598 241.343C128.892 238.749 137.555 236.517 146.366 235.222C155.221 233.92 163.865 233.618 171.239 234.645C178.719 235.687 183.959 237.959 187.126 240.951L200.86 226.412C193.527 219.485 183.698 216.188 173.999 214.837C164.193 213.471 153.547 213.951 143.458 215.434C133.326 216.923 123.394 219.477 114.897 222.499C106.603 225.449 98.9205 229.109 93.8012 233.153L106.199 248.847ZM128.763 197.741C132.882 194.93 142.148 192 153.32 191.664C164.336 191.332 175.031 193.598 182.392 198.818L193.962 182.505C181.779 173.864 166.211 171.266 152.717 171.673C139.38 172.075 125.891 175.486 117.487 181.223L128.763 197.741ZM182.392 198.818C183.903 199.89 185.267 201.081 186.476 202.395L201.195 188.854C198.978 186.444 196.544 184.336 193.962 182.505L182.392 198.818ZM186.476 202.395C186.514 202.435 186.55 202.476 186.587 202.516L201.399 189.077C201.331 189.002 201.263 188.927 201.195 188.854L186.476 202.395ZM178.116 191.046C178.176 191.427 178.235 191.803 178.292 192.176L198.062 189.148C197.999 188.742 197.935 188.332 197.87 187.918L178.116 191.046ZM178.292 192.176C178.554 193.889 178.783 195.517 178.981 197.064L198.819 194.52C198.599 192.806 198.348 191.017 198.062 189.148L178.292 192.176ZM178.981 197.064C180.511 208.994 180.224 215.988 179.738 219.671C179.497 221.499 179.213 222.46 179.106 222.777C179.054 222.935 179.046 222.93 179.11 222.792C179.143 222.723 179.193 222.621 179.264 222.491C179.3 222.425 179.341 222.353 179.388 222.273C179.411 222.234 179.436 222.192 179.462 222.149C179.475 222.128 179.489 222.106 179.503 222.084C179.51 222.073 179.517 222.061 179.524 222.05C179.527 222.044 179.533 222.036 179.534 222.033C179.54 222.024 179.545 222.016 187.993 227.367C196.441 232.719 196.446 232.71 196.452 232.701C196.454 232.698 196.459 232.69 196.463 232.684C196.47 232.672 196.477 232.66 196.485 232.648C196.5 232.624 196.515 232.6 196.53 232.575C196.56 232.526 196.591 232.475 196.622 232.422C196.684 232.317 196.747 232.205 196.813 232.085C196.943 231.847 197.079 231.581 197.217 231.285C197.495 230.694 197.784 229.985 198.067 229.141C198.633 227.454 199.179 225.222 199.566 222.29C200.337 216.453 200.504 207.659 198.819 194.52L178.981 197.064Z" fill="url(#paint0_linear_454_1917)"/>
</g>
<defs>
<filter id="filter0_d_454_1917" x="0" y="0.993652" width="274" height="274.007" filterUnits="userSpaceOnUse" color-interpolation-filters="sRGB">
<feFlood flood-opacity="0" result="BackgroundImageFix"/>
<feColorMatrix in="SourceAlpha" type="matrix" values="0 0 0 0 0 0 0 0 0 0 0 0 0 0 0 0 0 0 127 0" result="hardAlpha"/>
<feOffset dy="8"/>
<feGaussianBlur stdDeviation="8"/>
<feComposite in2="hardAlpha" operator="out"/>
<feColorMatrix type="matrix" values="0 0 0 0 0 0 0 0 0 0 0 0 0 0 0 0 0 0 0.2 0"/>
<feBlend mode="normal" in2="BackgroundImageFix" result="effect1_dropShadow_454_1917"/>
<feBlend mode="normal" in="SourceGraphic" in2="effect1_dropShadow_454_1917" result="shape"/>
</filter>
<linearGradient id="paint0_linear_454_1917" x1="196.769" y1="19" x2="30.5258" y2="256.64" gradientUnits="userSpaceOnUse">
<stop stop-color="#00C8D5"/>
<stop offset="1" stop-color="#00F0FF" stop-opacity="0"/>
</linearGradient>
</defs>
</svg>
