<svg  width="58" height="56" viewBox="0 0 58 56" fill="none" xmlns="http://www.w3.org/2000/svg">
<path d="M15.6483 45.8015C17.0291 45.8014 18.1483 44.6822 18.1483 43.3014C18.1483 41.9207 17.029 40.8014 15.6483 40.8015L15.6483 45.8015ZM3.00029 30.5025L5.50023 30.5198L3.00029 30.5025ZM13.1729 23.7414C13.366 25.1086 14.6307 26.0604 15.9979 25.8674C17.365 25.6744 18.3169 24.4096 18.1238 23.0425L13.1729 23.7414ZM33.9176 3.48275L33.2643 5.89589L33.3188 5.91064L33.3739 5.92291L33.9176 3.48275ZM36.2637 16.266C34.9071 16.5225 34.0153 17.8303 34.2718 19.187C34.5284 20.5436 35.8362 21.4355 37.1928 21.1789L36.2637 16.266ZM18.8212 51.0092C17.7217 51.8443 17.5074 53.4127 18.3425 54.5122C19.1777 55.6117 20.746 55.826 21.8455 54.9908L18.8212 51.0092ZM40.6688 53.2022C41.6908 54.1306 43.2719 54.0546 44.2002 53.0325C45.1286 52.0105 45.0526 50.4294 44.0305 49.5011L40.6688 53.2022ZM24.3782 39.3069C23.2239 40.0645 22.9024 41.6144 23.66 42.7687C24.4176 43.923 25.9675 44.2445 27.1218 43.4869L24.3782 39.3069ZM38.8566 48.5542C38.0971 49.7072 38.416 51.2576 39.5689 52.0172C40.7219 52.7768 42.2724 52.4579 43.032 51.3049L38.8566 48.5542ZM15.6483 40.8015C9.19903 40.8015 5.46551 35.5463 5.50023 30.5198L0.500351 30.4852C0.450288 37.7325 5.90044 45.8015 15.6483 45.8015L15.6483 40.8015ZM5.50023 30.5198C5.53729 25.1546 9.78366 20.2915 15.4893 20.2047L15.4133 15.2053C6.71416 15.3375 0.554227 22.6859 0.500351 30.4852L5.50023 30.5198ZM15.4893 20.2047C15.5421 20.2039 15.5951 20.2035 15.6483 20.2035V15.2035C15.5699 15.2035 15.4916 15.2041 15.4134 15.2053L15.4893 20.2047ZM18.1238 23.0425C17.8584 21.162 17.8137 19.454 17.9426 17.9135L12.96 17.4966C12.7975 19.4394 12.8597 21.5228 13.1729 23.7414L18.1238 23.0425ZM17.9426 17.9135C18.7712 8.01139 26.9088 4.17536 33.2643 5.89589L34.5709 1.06961C25.3916 -1.41537 14.0651 4.29122 12.96 17.4966L17.9426 17.9135ZM33.3739 5.92291C34.8837 6.25931 37.1712 7.56938 38.6294 9.57038C39.9787 11.422 40.5664 13.7526 39.159 16.5939L43.6395 18.8132C45.9932 14.0615 44.9481 9.75138 42.6703 6.62568C40.5014 3.64937 37.1675 1.64554 34.4613 1.04258L33.3739 5.92291ZM40.9443 45.319C45.5549 45.3189 49.6491 44.1539 52.6579 41.75C55.7257 39.2989 57.4405 35.7318 57.4975 31.4755L52.498 31.4085C52.4598 34.2625 51.3639 36.3839 49.5368 37.8437C47.6507 39.3506 44.7658 40.3189 40.9443 40.319L40.9443 45.319ZM57.4975 31.4755C57.5483 27.6831 56.8269 22.9273 53.4668 19.555C49.9979 16.0735 44.4087 14.7256 36.2637 16.266L37.1928 21.1789C44.5066 19.7957 48.0998 21.2524 49.9248 23.0841C51.8585 25.0248 52.5424 28.0905 52.498 31.4085L57.4975 31.4755ZM21.8455 54.9908C22.4355 54.5427 23.6621 53.9206 25.4164 53.3207C27.1193 52.7384 29.1436 52.2367 31.2032 51.9456C33.273 51.6531 35.2917 51.5856 37.0112 51.8159C38.762 52.0505 39.9618 52.5601 40.6688 53.2022L44.0305 49.5011C42.2781 47.9094 39.9483 47.1647 37.6751 46.8602C35.3705 46.5515 32.8707 46.6602 30.5034 46.9948C28.1259 47.3309 25.7944 47.9072 23.7987 48.5897C21.8544 49.2545 20.0396 50.0837 18.8212 51.0092L21.8455 54.9908ZM27.1218 43.4869C28.1779 42.7937 30.7148 42.0742 33.6381 42.1322C36.5422 42.1897 39.0824 42.9993 40.5314 44.5348L44.1679 41.1032C41.4009 38.171 37.2662 37.203 33.7371 37.1331C30.227 37.0636 26.5721 37.8669 24.3782 39.3069L27.1218 43.4869ZM38.4775 41.8032C39.0145 45.0633 38.9897 46.9587 38.8809 47.9501C38.8269 48.4416 38.754 48.6949 38.7279 48.7741C38.715 48.8133 38.7139 48.8087 38.7329 48.7688C38.7424 48.7488 38.7568 48.7202 38.7772 48.684C38.7874 48.6659 38.799 48.6459 38.8122 48.6242C38.8188 48.6134 38.8258 48.6021 38.8332 48.5904C38.8369 48.5846 38.8407 48.5786 38.8446 48.5726C38.8466 48.5696 38.8486 48.5665 38.8506 48.5635C38.8516 48.5619 38.8531 48.5596 38.8536 48.5588C38.8551 48.5565 38.8566 48.5542 40.9443 49.9295C43.032 51.3049 43.0335 51.3026 43.0351 51.3002C43.0356 51.2994 43.0371 51.2971 43.0382 51.2955C43.0402 51.2923 43.0423 51.2891 43.0444 51.2858C43.0486 51.2794 43.0528 51.2728 43.057 51.2661C43.0655 51.2527 43.0741 51.2389 43.0828 51.2246C43.1002 51.1961 43.118 51.1657 43.1361 51.1334C43.1724 51.0689 43.2099 50.9969 43.2479 50.917C43.324 50.7571 43.402 50.5659 43.4769 50.3384C43.6265 49.8843 43.7644 49.2843 43.851 48.4959C44.0232 46.9276 43.9984 44.5566 43.4111 40.9906L38.4775 41.8032Z" fill="url(#paint0_linear_282_44)"/>
<defs>
<linearGradient id="paint0_linear_282_44" x1="43" y1="3" x2="6.08271" y2="57.883" gradientUnits="userSpaceOnUse">
<stop stop-color="#00C8D5"/>
<stop offset="1" stop-color="#00F0FF" stop-opacity="50%"/>
</linearGradient>
</defs>
</svg>
