<svg width="667" height="668" viewBox="0 0 667 668" fill="none" xmlns="http://www.w3.org/2000/svg">
<path d="M666.482 312.064C666.84 317.575 662.506 322.209 656.987 322.402L591.033 324.703C585.519 324.896 580.911 320.582 580.491 315.08C580.117 310.179 579.596 305.259 578.925 300.324C560.501 164.881 435.766 70.0186 300.323 88.4429C164.88 106.867 70.0177 231.601 88.4421 367.045C106.866 502.488 231.601 597.35 367.044 578.926C452.688 567.276 522.106 513.119 556.917 440.626C559.306 435.651 565.167 433.302 570.236 435.484L630.836 461.562C635.909 463.745 638.265 469.636 635.931 474.642C602.736 545.822 545.419 603.114 473.972 636.242C399.497 670.775 314.901 676.625 236.38 652.674C157.86 628.722 90.9319 576.652 48.4098 506.43C5.88774 436.209 -9.24081 352.772 5.92048 272.092C21.0818 191.411 65.4676 119.158 130.58 69.1632C195.693 19.1687 276.958 -5.05394 358.817 1.13275C440.676 7.31944 517.377 43.4807 574.236 102.694C628.783 159.498 661.392 233.689 666.482 312.064Z" fill="url(#paint0_radial_724_1036)"/>
<defs>
<radialGradient id="paint0_radial_724_1036" cx="0" cy="0" r="1" gradientUnits="userSpaceOnUse" gradientTransform="translate(529.5 256) rotate(70.9349) scale(733.218 1150.03)">
<stop stop-color="#00C8D5"/>
<stop offset="0.599233" stop-color="#00F0FF" stop-opacity="0"/>
<stop offset="1" stop-color="#00F0FF" stop-opacity="0"/>
</radialGradient>
</defs>
</svg>
