<svg width="273" height="265" viewBox="0 0 273 265" fill="none" xmlns="http://www.w3.org/2000/svg">
<path d="M73.0796 218.141C79.9832 218.141 85.5796 212.544 85.5796 205.641C85.5796 198.737 79.9831 193.141 73.0795 193.141L73.0796 218.141ZM13.0014 144.462L0.501677 144.376L13.0014 144.462ZM60.7011 112.21C61.6603 119.047 67.98 123.811 74.8166 122.852C81.6532 121.893 86.4178 115.573 85.4587 108.737L60.7011 112.21ZM159.859 15.3075L156.573 27.368L156.847 27.4426L157.124 27.5047L159.859 15.3075ZM170.872 75.8736C164.091 77.1642 159.639 83.7083 160.93 90.4901C162.22 97.272 168.764 101.723 175.546 100.433L170.872 75.8736ZM87.7423 242.069C82.2575 246.261 81.2098 254.106 85.4022 259.591C89.5946 265.076 97.4396 266.123 102.924 261.931L87.7423 242.069ZM191.478 253.347C196.573 258.005 204.48 257.65 209.137 252.554C213.795 247.459 213.44 239.552 208.344 234.894L191.478 253.347ZM114.173 186.107C108.413 189.912 106.827 197.666 110.632 203.426C114.437 209.187 122.191 210.772 127.952 206.967L114.173 186.107ZM182.777 230.476C178.996 236.252 180.613 244 186.389 247.781C192.165 251.563 199.912 249.946 203.694 244.17L182.777 230.476ZM73.0795 193.141C42.9274 193.141 25.3373 168.409 25.5011 144.548L0.501677 144.376C0.262741 179.183 26.2951 218.141 73.0796 218.141L73.0795 193.141ZM25.5011 144.548C25.6758 119.096 45.6762 96.1963 72.3351 95.7885L71.9527 70.7915C30.1884 71.4303 0.758921 106.902 0.501677 144.376L25.5011 144.548ZM72.335 95.7885C72.5822 95.7848 72.8304 95.7829 73.0796 95.7829V70.7829C72.7034 70.7829 72.3278 70.7857 71.9527 70.7915L72.335 95.7885ZM85.4587 108.737C84.2021 99.7804 83.9917 91.6513 84.6009 84.3259L59.6869 82.2542C58.9115 91.5787 59.2087 101.573 60.7011 112.21L85.4587 108.737ZM84.6009 84.3259C88.5129 37.2804 126.832 19.2659 156.573 27.368L163.144 3.24706C119.095 -8.75313 64.9595 18.8461 59.6869 82.2542L84.6009 84.3259ZM157.124 27.5047C164.127 29.075 174.864 35.2431 181.713 44.7C188.023 53.4143 190.776 64.3657 184.181 77.7625L206.611 88.8032C217.882 65.9055 212.879 45.1143 201.961 30.0371C191.581 15.7025 175.616 6.03021 162.593 3.11036L157.124 27.5047ZM193.236 215.835C215.252 215.834 234.861 210.235 249.295 198.631C264.016 186.794 272.216 169.589 272.488 149.119L247.491 148.786C247.311 162.303 242.159 172.289 233.63 179.147C224.813 186.236 211.272 190.834 193.235 190.835L193.236 215.835ZM272.488 149.119C272.73 130.956 269.305 108.051 253.188 91.7724C236.505 74.9239 209.687 68.4868 170.872 75.8736L175.546 100.433C210.161 93.8453 226.959 100.814 235.422 109.362C244.451 118.48 247.701 132.962 247.491 148.786L272.488 149.119ZM102.924 261.931C105.648 259.849 111.398 256.903 119.703 254.046C127.752 251.276 137.325 248.888 147.063 247.503C156.854 246.111 166.375 245.794 174.46 246.884C182.698 247.994 188.249 250.396 191.478 253.347L208.344 234.894C199.891 227.168 188.676 223.574 177.8 222.108C166.771 220.621 154.829 221.147 143.543 222.752C132.205 224.365 121.088 227.13 111.569 230.406C102.306 233.593 93.609 237.585 87.7423 242.069L102.924 261.931ZM127.952 206.967C132.82 203.752 144.717 200.326 158.517 200.602C172.215 200.875 184.071 204.717 190.793 211.885L209.029 194.784C195.725 180.597 175.876 175.943 159.015 175.607C142.256 175.272 124.743 179.126 114.173 186.107L127.952 206.967ZM180.9 198.556C183.445 214.11 183.323 223.125 182.812 227.81C182.559 230.131 182.219 231.309 182.107 231.65C182.052 231.819 182.054 231.777 182.154 231.566C182.204 231.46 182.278 231.313 182.38 231.129C182.432 231.038 182.49 230.937 182.556 230.828C182.589 230.773 182.624 230.717 182.661 230.658C182.679 230.629 182.698 230.599 182.718 230.569C182.727 230.554 182.737 230.538 182.747 230.523C182.752 230.515 182.76 230.504 182.762 230.5C182.77 230.488 182.777 230.476 193.236 237.323C203.694 244.17 203.701 244.158 203.709 244.146C203.712 244.142 203.719 244.131 203.724 244.123C203.735 244.107 203.745 244.091 203.755 244.075C203.776 244.042 203.797 244.01 203.818 243.976C203.86 243.91 203.902 243.841 203.945 243.77C204.031 243.628 204.119 243.477 204.208 243.318C204.386 242.999 204.57 242.644 204.755 242.252C205.126 241.467 205.504 240.533 205.866 239.427C206.589 237.22 207.25 234.319 207.664 230.522C208.488 222.971 208.366 211.593 205.571 194.518L180.9 198.556Z" fill="url(#paint0_linear_370_638)"/>
<defs>
<linearGradient id="paint0_linear_370_638" x1="203" y1="13" x2="26.1191" y2="274.309" gradientUnits="userSpaceOnUse">
<stop stop-color="#00D56F"/>
<stop offset="1" stop-color="#00F0FF" stop-opacity="0"/>
</linearGradient>
</defs>
</svg>
