<svg width="59" height="59" viewBox="0 0 59 59" fill="none" xmlns="http://www.w3.org/2000/svg">
<path fill-rule="evenodd" clip-rule="evenodd" d="M59 29.5C59 37.2446 56.0156 44.2922 51.1341 49.5555C47.4914 41.2228 39.1756 35.4 29.4999 35.4C19.8242 35.4 11.5085 41.2227 7.86566 49.5552C2.9843 44.292 0 37.2445 0 29.5C0 13.2076 13.2076 0 29.5 0C45.7924 0 59 13.2076 59 29.5ZM29.4999 26.55C34.3876 26.55 38.3499 22.5877 38.3499 17.7C38.3499 12.8123 34.3876 8.85 29.4999 8.85C24.6121 8.85 20.6499 12.8123 20.6499 17.7C20.6499 22.5877 24.6121 26.55 29.4999 26.55Z" fill="black"/>
<circle cx="29.5" cy="29.5" r="26.5" stroke="black" stroke-width="6"/>
</svg>
