<svg width="76" height="73" viewBox="0 0 76 73" fill="none" xmlns="http://www.w3.org/2000/svg">
<path d="M20.5401 59.8919C22.4731 59.8919 24.0401 58.3249 24.0401 56.3919C24.0401 54.4589 22.4731 52.8919 20.5401 52.8919L20.5401 59.8919ZM4.00038 39.7532L7.5003 39.7775L4.00038 39.7532ZM17.075 31.0017C17.3468 32.9155 19.1185 34.2466 21.0323 33.9748C22.9461 33.703 24.2772 31.9312 24.0054 30.0174L17.075 31.0017ZM44.4307 4.62757L43.5211 8.00732L43.597 8.02775L43.6738 8.04475L44.4307 4.62757ZM47.4595 20.9994C45.5598 21.3566 44.3093 23.1861 44.6665 25.0858C45.0236 26.9855 46.8532 28.236 48.7529 27.8789L47.4595 20.9994ZM24.5576 66.2069C23.0149 67.3717 22.7087 69.5665 23.8735 71.1091C25.0384 72.6517 27.2332 72.958 28.7758 71.7931L24.5576 66.2069ZM53.1116 69.4549C54.5463 70.7503 56.7595 70.6374 58.055 69.2028C59.3504 67.7681 59.2375 65.5549 57.8029 64.2594L53.1116 69.4549ZM31.8374 50.9848C30.2185 52.0411 29.7625 54.2097 30.8188 55.8286C31.8751 57.4474 34.0437 57.9035 35.6626 56.8472L31.8374 50.9848ZM50.702 63.075C49.6342 64.6862 50.0748 66.8581 51.686 67.9259C53.2973 68.9937 55.4692 68.5531 56.537 66.9419L50.702 63.075ZM20.5401 52.8919C12.2403 52.8919 7.4558 46.1804 7.5003 39.7775L0.500465 39.7289C0.434083 49.282 7.65901 59.8919 20.5401 59.8919L20.5401 52.8919ZM7.5003 39.7775C7.54778 32.944 12.9941 26.7271 20.3354 26.6161L20.2296 19.6169C8.73378 19.7906 0.5719 29.4487 0.500465 39.7289L7.5003 39.7775ZM20.3354 26.6161C20.4034 26.6151 20.4716 26.6146 20.5401 26.6146V19.6146C20.4365 19.6146 20.333 19.6154 20.2297 19.6169L20.3354 26.6161ZM24.0054 30.0174C23.6609 27.5911 23.6035 25.3909 23.7702 23.4101L16.7949 22.823C16.5804 25.3704 16.6628 28.0992 17.075 31.0017L24.0054 30.0174ZM23.7702 23.4101C24.8382 10.7225 35.3156 5.79903 43.5211 8.00732L45.3403 1.24782C33.2311 -2.01104 18.2555 5.47091 16.7949 22.823L23.7702 23.4101ZM43.6738 8.04475C45.5979 8.47092 48.5404 10.1439 50.4116 12.6967C52.1287 15.0391 52.8712 17.9623 51.0817 21.5537L57.3471 24.6755C60.4759 18.396 59.0833 12.6863 56.0572 8.5582C53.1853 4.64043 48.7768 2.00539 45.1876 1.21039L43.6738 8.04475ZM53.6195 59.2647C59.6808 59.2646 65.0874 57.7425 69.0734 54.5766C73.144 51.3434 75.4212 46.6327 75.4968 41.0217L68.4974 40.9274C68.4484 44.5599 67.0501 47.2442 64.7197 49.0952C62.3046 51.0134 58.5848 52.2646 53.6195 52.2647L53.6195 59.2647ZM75.4968 41.0217C75.5636 36.0636 74.6167 29.7931 70.1512 25.3377C65.5391 20.7361 58.1433 18.9908 47.4595 20.9994L48.7529 27.8789C58.2845 26.0869 62.8964 27.9876 65.2071 30.2931C67.6642 32.7447 68.5551 36.6421 68.4974 40.9274L75.4968 41.0217ZM28.7758 71.7931C29.5185 71.2323 31.0962 70.4327 33.3825 69.6555C35.5966 68.9029 38.2306 68.2538 40.9105 67.8773C43.6047 67.4987 46.2243 67.4127 48.4483 67.7089C50.717 68.011 52.2357 68.6639 53.1116 69.4549L57.8029 64.2594C55.4627 62.1464 52.3658 61.1688 49.3723 60.7701C46.334 60.3655 43.0447 60.5086 39.9365 60.9453C36.814 61.3841 33.7521 62.1365 31.1296 63.028C28.5792 63.8949 26.1797 64.982 24.5576 66.2069L28.7758 71.7931ZM35.6626 56.8472C36.9928 55.9792 40.2621 55.047 44.061 55.1218C47.8348 55.1961 51.0857 56.2432 52.9188 58.1743L57.9957 53.3551C54.3155 49.4782 48.8378 48.2145 44.1988 48.1231C39.5849 48.0323 34.7572 49.0796 31.8374 50.9848L35.6626 56.8472ZM50.1666 54.488C50.866 58.7097 50.8309 61.148 50.692 62.4057C50.6232 63.0285 50.5314 63.3392 50.5039 63.4222C50.4903 63.4632 50.493 63.447 50.5228 63.3847C50.5376 63.3536 50.5592 63.3113 50.5887 63.259C50.6035 63.2329 50.6202 63.2044 50.639 63.1737C50.6484 63.1583 50.6584 63.1424 50.6689 63.1259C50.6741 63.1177 50.6795 63.1093 50.685 63.1008C50.6878 63.0966 50.6906 63.0923 50.6934 63.088C50.6948 63.0858 50.697 63.0826 50.6977 63.0815C50.6998 63.0782 50.702 63.075 53.6195 65.0084C56.537 66.9419 56.5392 66.9386 56.5413 66.9353C56.5421 66.9342 56.5442 66.9308 56.5457 66.9286C56.5486 66.9242 56.5516 66.9197 56.5545 66.9152C56.5604 66.9061 56.5663 66.897 56.5722 66.8876C56.5841 66.869 56.5961 66.8497 56.6083 66.8299C56.6326 66.7902 56.6574 66.7481 56.6826 66.7036C56.7329 66.6145 56.7846 66.5159 56.8368 66.4068C56.9413 66.1885 57.0473 65.9296 57.1486 65.624C57.3508 65.0138 57.5347 64.2152 57.6497 63.1742C57.8783 61.1041 57.8432 57.9962 57.0724 53.3439L50.1666 54.488Z" fill="url(#paint0_linear_282_44)"/>
<defs>
<linearGradient id="paint0_linear_282_44" x1="56.3077" y1="4" x2="8.42255" y2="75.6095" gradientUnits="userSpaceOnUse">
<stop stop-color="#00C8D5"/>
<stop offset="1" stop-color="#00F0FF" stop-opacity="0"/>
</linearGradient>
</defs>
</svg>
