<svg width="40" height="40" viewBox="0 0 40 40" fill="none" xmlns="http://www.w3.org/2000/svg">
<path d="M31.1111 0H4.44444C1.97778 0 0 2 0 4.44444V35.5556C0 38 1.97778 40 4.44444 40H35.5556C38 40 40 38 40 35.5556V8.88889L31.1111 0ZM20 35.5556C16.3111 35.5556 13.3333 32.5778 13.3333 28.8889C13.3333 25.2 16.3111 22.2222 20 22.2222C23.6889 22.2222 26.6667 25.2 26.6667 28.8889C26.6667 32.5778 23.6889 35.5556 20 35.5556ZM26.6667 13.3333H4.44444V4.44444H26.6667V13.3333Z" fill="url(#paint0_linear_643_233)"/>
<defs>
<linearGradient id="paint0_linear_643_233" x1="32.5" y1="14" x2="-4.03538" y2="43.0704" gradientUnits="userSpaceOnUse">
<stop stop-color="#00C8D5"/>
<stop offset="1" stop-color="#00F0FF" stop-opacity="0"/>
</linearGradient>
</defs>
</svg>
