<svg width="19" height="22" viewBox="0 0 19 22" fill="none" xmlns="http://www.w3.org/2000/svg">
<path d="M18.3936 3.45098H14.1489V2.37255C14.1489 1.74331 13.9147 1.13984 13.4977 0.694904C13.0807 0.249964 12.5152 0 11.9255 0H7.07447C6.48478 0 5.91925 0.249964 5.50228 0.694904C5.08531 1.13984 4.85106 1.74331 4.85106 2.37255V3.45098H0.606383C0.44556 3.45098 0.291324 3.51915 0.177605 3.6405C0.0638865 3.76185 0 3.92643 0 4.09804C0 4.26965 0.0638865 4.43423 0.177605 4.55558C0.291324 4.67693 0.44556 4.7451 0.606383 4.7451H1.61702V20.4902C1.61702 20.8906 1.76609 21.2746 2.03143 21.5578C2.29678 21.8409 2.65666 22 3.03191 22H15.9681C16.3433 22 16.7032 21.8409 16.9686 21.5578C17.2339 21.2746 17.383 20.8906 17.383 20.4902V4.7451H18.3936C18.5544 4.7451 18.7087 4.67693 18.8224 4.55558C18.9361 4.43423 19 4.26965 19 4.09804C19 3.92643 18.9361 3.76185 18.8224 3.6405C18.7087 3.51915 18.5544 3.45098 18.3936 3.45098ZM6.06383 2.37255C6.06383 2.08653 6.17031 1.81223 6.35984 1.60998C6.54937 1.40774 6.80643 1.29412 7.07447 1.29412H11.9255C12.1936 1.29412 12.4506 1.40774 12.6402 1.60998C12.8297 1.81223 12.9362 2.08653 12.9362 2.37255V3.45098H6.06383V2.37255ZM16.1702 20.4902C16.1702 20.5474 16.1489 20.6023 16.111 20.6427C16.0731 20.6832 16.0217 20.7059 15.9681 20.7059H3.03191C2.97831 20.7059 2.9269 20.6832 2.88899 20.6427C2.85108 20.6023 2.82979 20.5474 2.82979 20.4902V4.7451H16.1702V20.4902ZM7.68085 9.27451V16.1765C7.68085 16.3481 7.61696 16.5127 7.50325 16.634C7.38953 16.7554 7.23529 16.8235 7.07447 16.8235C6.91365 16.8235 6.75941 16.7554 6.64569 16.634C6.53197 16.5127 6.46809 16.3481 6.46809 16.1765V9.27451C6.46809 9.1029 6.53197 8.93832 6.64569 8.81697C6.75941 8.69562 6.91365 8.62745 7.07447 8.62745C7.23529 8.62745 7.38953 8.69562 7.50325 8.81697C7.61696 8.93832 7.68085 9.1029 7.68085 9.27451ZM12.5319 9.27451V16.1765C12.5319 16.3481 12.468 16.5127 12.3543 16.634C12.2406 16.7554 12.0864 16.8235 11.9255 16.8235C11.7647 16.8235 11.6105 16.7554 11.4968 16.634C11.383 16.5127 11.3191 16.3481 11.3191 16.1765V9.27451C11.3191 9.1029 11.383 8.93832 11.4968 8.81697C11.6105 8.69562 11.7647 8.62745 11.9255 8.62745C12.0864 8.62745 12.2406 8.69562 12.3543 8.81697C12.468 8.93832 12.5319 9.1029 12.5319 9.27451Z" fill="url(#paint0_linear_434_1914)"/>
<defs>
<linearGradient id="paint0_linear_434_1914" x1="14.6154" y1="1.63863e-06" x2="-20.4396" y2="39.377" gradientUnits="userSpaceOnUse">
<stop stop-color="#DC5152"/>
<stop offset="1" stop-color="#00F0FF" stop-opacity="0"/>
</linearGradient>
</defs>
</svg>
