<svg width="75" height="72" viewBox="0 0 75 72" fill="none" xmlns="http://www.w3.org/2000/svg">
<path fill-rule="evenodd" clip-rule="evenodd" d="M37.5 0C39.5711 0 41.25 1.6531 41.25 3.69231V8.54745C42.4661 8.70805 43.6784 8.94844 44.8792 9.27067C46.0139 9.57363 47.1201 9.94478 48.193 10.3794L50.6587 6.17443C51.6942 4.40843 53.9876 3.80335 55.7812 4.82295C57.5748 5.84255 58.1894 8.10073 57.1538 9.86674L54.6882 14.0717C55.62 14.7792 56.5116 15.5486 57.356 16.3781C58.2261 17.2306 59.0318 18.1324 59.771 19.0762L64.0416 16.6485C65.8352 15.6289 68.1287 16.234 69.1642 18C70.1997 19.766 69.5852 22.0242 67.7916 23.0438L63.521 25.4715C63.997 26.6108 64.398 27.7881 64.7181 28.9977C65.0097 30.0938 65.2301 31.1992 65.3811 32.3077H71.25C73.3211 32.3077 75 33.9608 75 36C75 38.0392 73.3211 39.6923 71.25 39.6923H65.3811C65.2302 40.8006 65.0098 41.9056 64.7183 43.0014C64.3982 44.2113 63.997 45.3891 63.5209 46.5286L68.6032 49.4178C70.3968 50.4374 71.0113 52.6955 69.9758 54.4615C68.9403 56.2275 66.6468 56.8326 64.8532 55.813L59.7706 52.9237C59.0522 53.8409 58.2711 54.7184 57.4291 55.5496C56.563 56.4067 55.6467 57.2002 54.6879 57.9283L57.6221 62.9324C58.6577 64.6984 58.0431 66.9566 56.2495 67.9762C54.4559 68.9958 52.1625 68.3907 51.1269 66.6247L48.1928 61.6207C47.0303 62.0916 45.8288 62.488 44.5943 62.8038C43.4868 63.0887 42.37 63.3043 41.25 63.4522V68.3077C41.25 70.3469 39.5711 72 37.5 72C35.4289 72 33.75 70.3469 33.75 68.3077V63.4522C32.6004 63.3004 31.4542 63.0774 30.318 62.7812C29.1142 62.4691 27.9419 62.0803 26.8069 61.6206L24.3413 65.8253C23.3058 67.5913 21.0123 68.1964 19.2187 67.1768C17.4252 66.1571 16.8106 63.899 17.8462 62.133L20.3117 57.9283C19.3536 57.2008 18.4381 56.408 17.5726 55.5517C16.7298 54.72 15.948 53.8418 15.2291 52.9239L10.9587 55.3515C9.16511 56.3711 6.87164 55.766 5.83611 54C4.80058 52.234 5.41511 49.9758 7.20871 48.9562L11.4791 46.5286C11.0465 45.4932 10.6758 44.4263 10.3715 43.3324C10.0349 42.1283 9.78459 40.9122 9.61842 39.6923H3.75C1.67893 39.6923 0 38.0392 0 36C0 33.9608 1.67893 32.3077 3.75 32.3077H9.61846C9.78488 31.0859 10.0357 29.8679 10.3731 28.6619C10.677 27.57 11.0472 26.505 11.4791 25.4714L6.39679 22.5822C4.60319 21.5626 3.98866 19.3045 5.02419 17.5385C6.05973 15.7725 8.35319 15.1674 10.1468 16.187L15.2288 19.076C15.9681 18.132 16.7739 17.23 17.6442 16.3774C18.4885 15.5482 19.3799 14.7789 20.3116 14.0715L17.3774 9.06761C16.3419 7.30161 16.9564 5.04343 18.75 4.02382C20.5436 3.00422 22.8371 3.6093 23.8726 5.3753L26.8069 10.3794C27.85 9.95688 28.9246 9.59432 30.0263 9.29607C31.2579 8.961 32.502 8.71218 33.75 8.54739V3.69231C33.75 1.6531 35.4289 0 37.5 0ZM25.4379 52.4746C24.6026 51.8806 23.8142 51.2266 23.0793 50.5189L32.0801 44.6106C32.3537 44.4311 32.5955 44.2222 32.8043 43.9912C34.1851 44.7795 35.789 45.2308 37.5 45.2308C39.211 45.2308 40.8149 44.7795 42.1957 43.9912C42.4045 44.2222 42.6463 44.4311 42.9199 44.6106L51.9207 50.5189C51.2173 51.1962 50.4649 51.8244 49.6693 52.3978C49.0787 52.8217 48.4594 53.2189 47.8122 53.5868C47.2043 53.9324 46.586 54.244 45.9595 54.5223C43.9029 55.4309 41.7057 56.004 39.4616 56.217C38.8159 56.277 38.1616 56.3077 37.5 56.3077C36.8312 56.3077 36.1698 56.2764 35.5174 56.2151C33.2795 56.0004 31.0887 55.4277 29.0377 54.5213C28.412 54.2432 27.7945 53.9319 27.1873 53.5868C26.5793 53.2412 25.996 52.8697 25.4379 52.4746ZM28.125 36C28.125 36.7588 28.218 37.4961 28.3933 38.2017C28.2316 38.2774 28.0733 38.3656 27.9199 38.4663L18.7577 44.4804L18.7132 44.3846C17.8003 42.3971 17.2161 40.2752 16.9846 38.1061C16.9121 37.4138 16.875 36.7112 16.875 36C16.875 35.2672 16.9144 34.5434 16.9913 33.8307C17.2243 31.7107 17.7943 29.6365 18.679 27.6898C18.9639 27.0662 19.2834 26.4509 19.638 25.846C19.9643 25.2896 20.3132 24.7543 20.683 24.2403C22.0299 22.3763 23.6886 20.7458 25.584 19.4225C26.0976 19.0655 26.6321 18.7284 27.1872 18.4128C27.7833 18.074 28.3895 17.7677 29.0035 17.4936C30.5213 16.8195 32.116 16.3284 33.75 16.0302V27.5373C30.4389 28.9617 28.125 32.2148 28.125 36ZM41.25 27.5373C44.5611 28.9617 46.875 32.2148 46.875 36C46.875 36.7588 46.782 37.4961 46.6067 38.2017C46.7685 38.2774 46.9267 38.3656 47.0801 38.4663L56.2419 44.4802L56.2861 44.385C57.23 42.3304 57.8224 40.1322 58.0372 37.8868C58.0953 37.2655 58.125 36.6362 58.125 36C58.125 35.3406 58.0931 34.6885 58.0307 34.0452C57.8132 31.8504 57.2349 29.7017 56.3203 27.6891C56.0354 27.0658 55.7161 26.4506 55.3615 25.846C55.0048 25.2377 54.621 24.6544 54.2124 24.0969C52.9116 22.3293 51.3286 20.7762 49.5286 19.5017C48.9805 19.1153 48.4083 18.7516 47.8123 18.4128C47.2158 18.0738 46.6093 17.7674 45.9949 17.4931C44.4776 16.8194 42.8834 16.3284 41.25 16.0303V27.5373Z" fill="url(#paint0_linear_391_1732)" fill-opacity="0.8"/>
<defs>
<linearGradient id="paint0_linear_391_1732" x1="57.6923" y1="-1.63495e-06" x2="-1.55767" y2="97.453" gradientUnits="userSpaceOnUse">
<stop stop-color="#00C8D5"/>
<stop offset="1" stop-color="#00F0FF" stop-opacity="0"/>
</linearGradient>
</defs>
</svg>
