<svg width="79" height="82" viewBox="0 0 79 82" fill="none" xmlns="http://www.w3.org/2000/svg">
<path d="M21.2699 67.8401C23.479 67.8401 25.2698 66.0492 25.2698 63.8401C25.2698 61.631 23.479 59.8401 21.2698 59.8401L21.2699 67.8401ZM4.0004 45.1536L8.00031 45.1795L4.0004 45.1536ZM17.3043 35.2958C17.5935 37.486 19.6034 39.027 21.7935 38.7378C23.9836 38.4487 25.5247 36.4388 25.2355 34.2487L17.3043 35.2958ZM46.2144 5.70481L45.1022 9.54707L45.1942 9.5737L45.2874 9.5959L46.2144 5.70481ZM49.2592 24.0341C47.0939 24.472 45.6936 26.5823 46.1314 28.7476C46.5693 30.9129 48.6796 32.3133 50.8449 31.8754L49.2592 24.0341ZM25.1448 74.8951C23.4301 76.2879 23.169 78.807 24.5618 80.5218C25.9545 82.2366 28.4737 82.4977 30.1885 81.1049L25.1448 74.8951ZM54.9405 78.4628C56.5253 80.0019 59.0577 79.965 60.5968 78.3803C62.1359 76.7956 62.099 74.2632 60.5143 72.724L54.9405 78.4628ZM32.7646 57.7854C30.9564 59.0545 30.5193 61.5491 31.7884 63.3574C33.0575 65.1656 35.5522 65.6027 37.3604 64.3336L32.7646 57.7854ZM52.4031 71.4189C51.2443 73.2998 51.8296 75.7639 53.7104 76.9227C55.5912 78.0815 58.0553 77.4961 59.2141 75.6153L52.4031 71.4189ZM21.2698 59.8401C13.0832 59.8402 7.95216 52.6333 8.00031 45.1795L0.000480737 45.1278C-0.0671315 55.5938 7.34106 67.8402 21.2699 67.8401L21.2698 59.8401ZM8.00031 45.1795C8.05146 37.2618 13.8567 30.586 21.0659 30.4688L20.9359 22.4699C8.4769 22.6724 0.0734965 33.8254 0.000480737 45.1278L8.00031 45.1795ZM21.0659 30.4688C21.1336 30.4677 21.2016 30.4672 21.2698 30.4672V22.4672C21.1583 22.4672 21.047 22.4681 20.9359 22.4699L21.0659 30.4688ZM25.2355 34.2487C24.8739 31.51 24.8133 29.0231 24.9887 26.7814L17.0131 26.1573C16.7905 29.0011 16.8758 32.0498 17.3043 35.2958L25.2355 34.2487ZM24.9887 26.7814C26.1234 12.2809 37.0819 7.2254 45.1022 9.54707L47.3266 1.86256C34.1359 -1.95582 18.5184 6.92094 17.0131 26.1573L24.9887 26.7814ZM45.2874 9.5959C47.145 10.0385 50.1555 11.8408 52.1011 14.6958C53.8933 17.3254 54.6996 20.6856 52.8003 24.7858L60.0592 28.1485C63.2952 21.1629 61.8722 14.8277 58.7119 10.1905C55.7052 5.77858 51.0404 2.74262 47.1414 1.81372L45.2874 9.5959ZM55.8086 67.1357C62.2568 67.1356 68.0272 65.389 72.2696 61.7646C76.5793 58.0827 78.9188 52.792 78.9966 46.5754L70.9973 46.4752C70.9451 50.6397 69.4469 53.6541 67.0731 55.6821C64.6321 57.7676 60.8734 59.1356 55.8085 59.1357L55.8086 67.1357ZM78.9966 46.5754C79.0658 41.0584 78.096 34.0433 73.4149 29.0196C68.4902 23.7345 60.5572 21.7494 49.2592 24.0341L50.8449 31.8754C60.6542 29.8918 65.2586 32.0014 67.562 34.4734C70.1091 37.2068 71.0582 41.6111 70.9973 46.4752L78.9966 46.5754ZM30.1885 81.1049C30.9195 80.5112 32.5162 79.6342 34.8762 78.7713C37.156 77.9377 39.87 77.2185 42.6282 76.8016C45.4039 76.3821 48.077 76.2913 50.3244 76.6132C52.6083 76.9403 54.0915 77.6381 54.9405 78.4628L60.5143 72.724C58.0054 70.2873 54.6692 69.1539 51.4588 68.694C48.2118 68.2289 44.7155 68.3953 41.4327 68.8915C38.1325 69.3902 34.8992 70.245 32.129 71.2578C29.439 72.2414 26.883 73.4833 25.1448 74.8951L30.1885 81.1049ZM37.3604 64.3336C38.6497 63.4287 41.9382 62.4006 45.8156 62.4828C49.6398 62.5638 52.8887 63.698 54.7283 65.7825L60.7265 60.489C56.8096 56.0507 50.9448 54.5896 45.985 54.4846C41.0785 54.3806 35.9128 55.5759 32.7646 57.7854L37.3604 64.3336ZM51.8552 61.6684C52.5873 66.4216 52.5527 69.1801 52.4052 70.617C52.332 71.3291 52.2338 71.6904 52.2017 71.7945C52.1859 71.8458 52.1871 71.8316 52.217 71.7644C52.232 71.7309 52.254 71.6842 52.2846 71.626C52.2999 71.5969 52.3173 71.5649 52.337 71.5303C52.3468 71.513 52.3573 71.4951 52.3683 71.4765C52.3738 71.4672 52.3794 71.4578 52.3852 71.4482C52.3881 71.4434 52.391 71.4386 52.394 71.4337C52.3955 71.4312 52.3978 71.4276 52.3985 71.4263C52.4008 71.4226 52.4031 71.4189 55.8086 73.5171C59.2141 75.6153 59.2164 75.6116 59.2187 75.6079C59.2195 75.6066 59.2217 75.6029 59.2233 75.6004C59.2263 75.5953 59.2294 75.5903 59.2325 75.5852C59.2387 75.5749 59.2449 75.5646 59.2511 75.5541C59.2636 75.533 59.2762 75.5113 59.2889 75.489C59.3143 75.4444 59.3401 75.3972 59.3663 75.3475C59.4186 75.2479 59.4722 75.1379 59.5261 75.0168C59.6339 74.7745 59.743 74.4877 59.8472 74.1497C60.0549 73.4753 60.2445 72.5907 60.3633 71.4342C60.5995 69.1338 60.5649 65.6635 59.762 60.4505L51.8552 61.6684Z" fill="url(#paint0_linear_391_1731)"/>
<defs>
<linearGradient id="paint0_linear_391_1731" x1="58.6154" y1="5" x2="-2.08881" y2="92.2698" gradientUnits="userSpaceOnUse">
<stop stop-color="#00C8D5"/>
<stop offset="1" stop-color="#00F0FF" stop-opacity="0"/>
</linearGradient>
</defs>
</svg>
